<?xml version="1.0" encoding="utf-8"?>
<!-- Generator: Adobe Illustrator 22.0.1, SVG Export Plug-In . SVG Version: 6.00 Build 0)  -->
<svg version="1.1" id="Layer_1" xmlns="http://www.w3.org/2000/svg" xmlns:xlink="http://www.w3.org/1999/xlink" x="0px" y="0px"
	 viewBox="0 0 22 18" style="enable-background:new 0 0 22 18;" xml:space="preserve">
<g id="icons">
	<g id="menu">
		<path d="M19.8,6.8H2.2C1,6.8,0,7.8,0,9s1,2.2,2.2,2.2h17.6c1.2,0,2.2-1,2.2-2.2S21,6.8,19.8,6.8z"/>
		<path d="M2.2,4.6h13.2c1.2,0,2.2-1,2.2-2.2s-1-2.2-2.2-2.2H2.2C1,0.2,0,1.2,0,2.4S1,4.6,2.2,4.6z"/>
		<path d="M15.4,13.4H2.2c-1.2,0-2.2,1-2.2,2.2s1,2.2,2.2,2.2h13.2c1.2,0,2.2-1,2.2-2.2S16.6,13.4,15.4,13.4z"/>
	</g>
</g>
</svg>
