<?xml version="1.0" encoding="utf-8"?>
<!-- Generator: Adobe Illustrator 22.0.1, SVG Export Plug-In . SVG Version: 6.00 Build 0)  -->
<svg version="1.1" id="Layer_1" xmlns="http://www.w3.org/2000/svg" xmlns:xlink="http://www.w3.org/1999/xlink" x="0px" y="0px"
	 viewBox="0 0 24 24" style="enable-background:new 0 0 24 24;" xml:space="preserve">
<path d="M21.3,5H18V2c0-1.1-0.9-2-2-2H8C6.9,0,6,0.9,6,2v3H2.8C2.1,5,1.5,5.6,1.5,6.3c0,0.7,0.6,1.2,1.2,1.2h0.8V22
	c0,1.1,0.9,2,2,2h13c1.1,0,2-0.9,2-2V7.5h0.8c0.7,0,1.3-0.6,1.3-1.2C22.5,5.6,21.9,5,21.3,5z M15.5,5h-7V3.6C8.5,3,9,2.5,9.6,2.5
	h4.8c0.6,0,1.1,0.5,1.1,1.1L15.5,5L15.5,5z M8.5,8.5v12c0,0.5-0.5,1-1,1s-1-0.5-1-1v-12c0-0.5,0.5-1,1-1S8.5,8,8.5,8.5z M13,8.5v12
	c0,0.5-0.5,1-1,1c-0.5,0-1-0.5-1-1v-12c0-0.5,0.5-1,1-1C12.6,7.5,13,8,13,8.5z M17.5,8.5v12c0,0.5-0.5,1-1,1c-0.5,0-1-0.5-1-1v-12
	c0-0.5,0.5-1,1-1C17.1,7.5,17.5,8,17.5,8.5z"/>
</svg>
