<?xml version="1.0" encoding="utf-8"?>
<!-- Generator: Adobe Illustrator 22.0.1, SVG Export Plug-In . SVG Version: 6.00 Build 0)  -->
<svg version="1.1" id="Layer_1" xmlns="http://www.w3.org/2000/svg" xmlns:xlink="http://www.w3.org/1999/xlink" x="0px" y="0px"
	 viewBox="0 0 24 24" style="enable-background:new 0 0 24 24;" xml:space="preserve">
<path d="M12,0C5.4,0,0,5.4,0,12s5.4,12,12,12s12-5.4,12-12S18.6,0,12,0z M19.5,13.9h-5.6v5.6c0,0.6-0.5,1-1,1h-1.8
	c-0.6,0-1-0.5-1-1v-5.6H4.5c-0.6,0-1-0.5-1-1v-1.8c0-0.6,0.5-1,1-1h5.6V4.5c0-0.6,0.5-1,1-1h1.8c0.6,0,1,0.5,1,1v5.6h5.6
	c0.6,0,1,0.5,1,1v1.8C20.5,13.4,20,13.9,19.5,13.9z"/>
</svg>
